<?xml version="1.0" standalone="no"?>
<!DOCTYPE svg PUBLIC "-//W3C//DTD SVG 20010904//EN"
 "http://www.w3.org/TR/2001/REC-SVG-20010904/DTD/svg10.dtd">
<svg version="1.0" xmlns="http://www.w3.org/2000/svg"
 width="71.000000pt" height="71.000000pt" viewBox="0 0 71.000000 71.000000"
 preserveAspectRatio="xMidYMid meet">
<metadata>
Created by potrace 1.11, written by Peter Selinger 2001-2013
</metadata>
<g transform="translate(0.000000,71.000000) scale(0.100000,-0.100000)"
fill="#000000" stroke="none">
<path d="M270 698 c0 -5 -4 -7 -8 -4 -18 11 -119 -48 -164 -94 -55 -58 -88
-125 -95 -195 -6 -59 8 -78 44 -64 13 5 23 12 24 16 6 48 8 61 12 80 24 102
135 189 252 198 31 3 61 7 66 10 14 9 11 41 -5 54 -16 14 -126 12 -126 -1z"/>
<path d="M492 648 c-19 -19 -15 -26 41 -81 73 -71 92 -114 92 -207 0 -58 -5
-86 -22 -121 -29 -57 -29 -76 -2 -84 30 -10 56 20 83 96 37 106 24 204 -40
300 -38 57 -97 109 -124 109 -9 0 -21 -5 -28 -12z"/>
<path d="M275 542 c-77 -37 -116 -100 -117 -185 -1 -45 18 -69 48 -61 18 5 22
15 26 63 5 66 35 108 83 117 16 3 32 7 35 9 4 3 22 0 41 -5 18 -6 42 -7 51 -4
25 8 23 51 -3 65 -33 17 -129 18 -164 1z"/>
<path d="M494 415 c-13 -13 -24 -76 -12 -69 13 8 -4 -29 -29 -63 -31 -40 -88
-57 -144 -42 -29 8 -43 2 -52 -23 -17 -47 102 -73 178 -39 88 40 142 147 112
223 -7 20 -40 28 -53 13z"/>
<path d="M40 240 c-24 -46 65 -150 169 -198 43 -20 75 -27 135 -29 44 -1 84 1
90 5 11 7 32 12 54 14 6 1 12 5 12 9 0 4 9 11 20 14 23 7 25 24 7 49 -13 17
-16 17 -79 -2 -68 -21 -141 -23 -188 -4 -14 5 -28 10 -33 11 -17 2 -117 97
-117 112 0 13 -30 39 -45 39 -8 0 -19 -9 -25 -20z"/>
</g>
</svg>
